<svg height="500pt" viewBox="0 0 500 500" width="500pt" xmlns="http://www.w3.org/2000/svg"><path d="m0 250v250h500v-500h-500zm287-165.8 11.5 1.1 18.1 9.1c9.9 5 20 10 22.4 11.1 10.6 4.8 27.2 18.1 39 31.2 10.8 11.8 19 30.5 19 43.1 0 5.2.3 5.7 5.4 11.3 4 4.3 5.9 7.4 7.5 12.1 3.6 11.3 5.1 22.2 5.1 38.3 0 13.1-.4 16.7-2.5 25-4.3 16.5-15.3 35.6-28.7 50-11.5 12.3-26.1 20.8-45.5 26.3-16.9 4.9-27.3 12.8-30.9 23.5-1 3-1.9 10.1-2.3 17.6l-.6 12.6h-5l-.3-15.5c-.4-21.8-.3-22.6 6.8-30.3 6.9-7.5 15.1-12.2 28.5-16.2 19.4-5.9 30.4-12.1 42.6-24.4 8.1-8.1 19.6-24.7 23-33.2 3.7-9.4 5-18.6 5-34.5-.1-22.7-3.1-35.4-11-46.1-1.7-2.3-4.2-5-5.5-5.9-2.5-1.6-2.5-1.5-15.5 11.5-7.2 7.2-13.9 14.8-15.1 17-2.4 4.8-4.5 6.1-9.8 6.1-4.4 0-10.2-1.7-10.2-3.1 0-.5-.4-.9-1-.9-1.1 0-1.4 12.8-.4 15.4.5 1.3 2.4 1.6 10.3 1.6l9.6-.1 3.5-4.5c1.9-2.5 6.8-7.6 10.8-11.4 6.4-6 7.2-7.2 7.2-10.5 0-7.1 8.7-11.2 13.9-6.4 7 6.5 2.7 15.6-6.9 14.7-3.9-.3-4.4-.1-10.8 6.7-3.7 3.8-8.8 9.4-11.3 12.4l-4.5 5.5-12-.3c-11.4-.2-12-.3-14.6-2.8l-2.8-2.7.2-35.9.3-35.8-5.5-6-5.5-5.9h-7.6c-7.3 0-7.8.1-11.3 3.5-5.3 4.9-10.3 4.7-16.3-.8-2.9-2.6-3.9-7.9-2.3-11.8 4-9.6 17.5-9.2 21.6.7l1.4 3.3 8.2-.5 8.3-.5 7.8 7.7 7.7 7.6v23.9c0 13.2.4 23.9.9 23.9s1.6-1.2 2.6-2.6c.9-1.4 2.5-3.4 3.6-4.5 1.8-1.8 1.9-3.5 1.9-25.7v-23.7l-3-1.3c-3.2-1.5-6-5.7-6-9.2 0-1.2.7-3.4 1.5-5 3.5-6.7 11.1-8.1 16.1-2.9 2.4 2.5 2.9 3.9 2.9 8.1 0 4.5-.4 5.3-3.4 7.8l-3.4 2.9.8 23.8c.4 13.1 1 24.1 1.3 24.4.4.4 2.1 1 3.9 1.4 3 .6 3.9 0 14.6-9.9 6.3-5.9 12.7-12.3 14.3-14.3l2.8-3.7-1.7-6.5c-3.9-14.5-20.4-34-39.5-46.5-20.1-13.2-44.2-23.7-63-27.5-7.7-1.6-18.1-1.3-23.6.5-3.7 1.3-7 1.5-14.5 1.1-5.3-.3-10.6-.9-11.8-1.2-2.3-.7-2.3-.6-2.3 9.1 0 17.1.7 15.6-16.7 32.7-8.5 8.4-16.1 15.5-16.8 16-1.1.6-.9 1.5 1.1 4.5 2.1 3 2.5 4.4 1.9 7.7-.8 5.1-2.7 8-6.7 10.1-7.9 4.1-17.8-2.1-17.8-11.1 0-5.7 3.9-10.5 9.9-12 3.2-.8 7.3-4.1 21.1-17.5l17.2-16.4-.4-11.2c-.2-6.2-.6-11.6-1-12-.8-.7-3.1-.3-19.3 3.3-14.9 3.4-38.8 14.8-52.6 25.2-27.2 20.5-44.8 43.7-51 67-2.3 9.1-2.6 24.5-.4 31.7 2.9 9.8 12.5 19.9 24.1 25.4 7.9 3.8 14.7 5 28.9 5h11l1.2 6.2c1.6 8.2 8.1 21.3 13.8 27.6 8.6 9.6 19 14.7 36.7 18.2 6.9 1.4 16.9 7.8 21.1 13.5 1.6 2.2 4.3 6.7 6 10l3.2 6 .3 30.6c.3 26.8.1 30.7-1.3 31.9-1.1.9-2.2 1-3.8.3-2.1-1-2.2-1.4-1.9-16.4.1-8.5-.1-21.1-.6-28-1.2-16-3.3-21.1-12.9-30.8-6.7-6.8-6.9-6.9-14.2-8.1-26.6-4.4-45.8-20.5-53.3-44.7l-2.3-7.4-4 .7c-5.2.7-19.3-1.2-27-3.8-12.9-4.2-25.6-15.2-31.5-27.1-7.7-15.8-5.9-41 4.5-61.7 1.5-3 5.2-9.3 8.3-14 17.6-26.8 39.8-46.3 70-61.4 20.5-10.3 29.5-12.5 50.5-12.7 7.3-.1 15.7-.4 18.7-.8 7.3-.8 27.7-.3 42 1.1zm-32.6 24c1.4.6 2.8 1.9 3.1 3 .7 2.2-.3 5.8-1.6 5.8-.5 0-.9 2.1-.9 4.6 0 4.6-.1 4.7-12 16.3l-11.9 11.6 14.2 13.2c7.8 7.3 17.9 17 22.4 21.5l8.3 8.3.5 39.5c.3 21.7.5 42 .5 45-.1 3-.3 31.4-.5 63-.3 31.6-.7 58-.9 58.7-.6 1.5-4.2 1.7-5.1.3-.3-.5-.8-27.9-1-60.7-.2-32.9-.4-60.7-.5-61.8s.2-9.8.6-19.3l.7-17.3-22.7-22.8c-12.4-12.5-22.6-23.2-22.6-23.9s-.9-1.2-2.1-1.2c-2.5 0-5.7-1.6-8.6-4.3-1.8-1.6-2.3-3.1-2.3-6.9 0-6 1.1-8.3 5-10.3 8-4.1 18 1.3 18 9.7 0 2.1-.5 3.3-3.8 8.6-1.1 1.9.2 3.4 18 20.2 16.1 15.2 19.3 17.9 19.9 16.3.4-1 .8-7.9.8-15.4l.1-13.7-23.7-23.1-23.7-23.1 13.2-13.3c10.9-10.9 13.2-13.7 13.2-16.1 0-1.6-.7-3.7-1.6-4.7-2.7-3-.7-7.2 4.3-8.8.1-.1 1.3.4 2.7 1.1zm38.7 1.7c3.1 3.2 3.9 8.4 1.8 12.3-1.3 2.4-7.4 5.1-9.7 4.3-1.2-.3-5.3 3.1-14.2 12l-12.4 12.4 16.3 15.8 16.3 15.8.2 107.8c.1 100 0 108-1.6 108.8-.9.5-2.4.6-3.2.3-1.7-.6-2-33.3-1.6-166l.1-47-3.8-3.6c-2.1-2-10.1-9.9-17.8-17.7l-14-14.1 14.3-14.3 14.2-14.2v-4.8c0-4 .5-5.4 2.9-7.8 2-2 3.9-2.9 6.1-2.9s4.1.9 6.1 2.9zm-92.1 5.1c3.5 3.5 2.1 10.2-2.6 12-4.6 1.8-10.4-2.1-10.4-7.1 0-4 3.2-6.9 7.5-6.9 2.2 0 4.3.8 5.5 2zm122.1 4.9c6.2 6.2 2.1 16.1-6.6 16.1-3 0-4.7-.6-6.3-2.3-8.6-9.2 3.9-22.7 12.9-13.8zm-144.7 10.3c3.7 5.3.5 11.4-5.5 10.6-2.8-.4-4.1.5-14.6 10.5-9.5 9.2-11.4 11.5-11 13.4l.4 2.4-2.1-2c-1.2-1.2-2.8-2.1-3.4-2.1-2.6 0-.7-2.4 11.7-14.6 9.1-8.8 13.1-13.4 13.3-15.2.6-4.9 8.5-6.9 11.2-3zm-48.6 27.4c2.5 1.7 3.2 8.4.9 8.4-.7 0-1.3-1.2-1.2-2.8 0-2.1-.5-2.8-2.3-3-2.7-.4-4 2.3-2.4 4.9.7 1.1.8 2 .2 2.4-1.4.9-4.2-5.3-3.5-7.6.4-1.1 1.6-2.4 2.8-2.9 3-1.2 3-1.2 5.5.6zm243.9 7.6c1.6 1.5 2.3 3.3 2.3 6 0 5.2-1.3 7.4-5.1 8.7-6.5 2.2-13.2-3.7-11.5-10.2 1.6-6.4 9.6-8.9 14.3-4.5zm-54.5 9.5c2.2 1.9 2.3 6.1.4 8.9-1.2 1.7-1.4 7-.9 32.2l.6 30.2 5.3 5 5.3 5h41.5l5.3-5.2c3.4-3.3 5.3-6.1 5.3-7.6 0-2.8 4.2-7.2 6.9-7.2 2.9 0 5.1 2.7 5.1 6.4s-1.2 5.1-5.3 6.1c-1.6.4-5.2 3.5-8.9 7.6l-6.1 6.9h-47.3l-6.6-6.8-6.7-6.7-.3-31.7c-.3-31.4-.3-31.7-2.5-33.8-2.7-2.4-3-7.1-.7-9.4 2-2.1 7.3-2 9.6.1zm-183.4 10.5c1.6 1.6 1.5 2.8-.3 2.8-.8 0-1.9-.9-2.5-2-.8-1.5-.8-2 .3-2 .7 0 1.8.5 2.5 1.2zm55.3 5.7c1.3 1.1 2 2.3 1.6 2.8-.5.4-8 1-16.8 1.1-13.5.3-15.9.2-15.9-1.1 0-3.4 4.1-4.6 16.6-4.6 10.6-.1 12.5.2 14.5 1.8zm65.3 2.4c4 2.9 1.3 9.7-3.9 9.7-2.9 0-4.5-1.9-4.5-5.1 0-5 4.5-7.4 8.4-4.6zm-138.4.7c1 .5 2.8 3 4 5.5l2.2 4.5h95.7l15 14.2c8.3 7.9 17.5 17 20.5 20.4l5.5 6.1.1 76.8c.2 77.5.2 78.5-3 78.5-2.8 0-2.9-3-3.5-77.5l-.5-76-18.3-17.8-18.2-17.8-19.7-.5c-10.9-.4-20.4-.4-21.2-.1-1.2.5-1.2 1.2-.2 4.7.7 2.3 2.1 4.7 3.1 5.3 1.2.6 7.8.8 18.4.4l16.5-.5 11.8 11.1c13.6 12.8 17.3 17.1 16.1 19.1-.4.8-5.6 6.6-11.4 12.8-9.4 10-10.5 11.6-9.7 13.7 1.2 3.4-.8 9.6-3.9 12-1.8 1.5-4 2.1-7.4 2.1-6.8 0-10.9-3.6-11.6-10.3-.5-4.3-.3-5.1 2.2-7.7 3.7-3.9 8.6-5.5 12.5-4.1 2.8.9 3.3.7 8.4-4.7 5.9-6.2 12.6-14.3 12.6-15.3 0-.4-4.9-5.2-10.9-10.8l-10.9-10.1-18.9-.8-18.8-.7-1.7-3.5c-1-1.9-2.5-5.6-3.4-8.3l-1.7-4.7h-46.2l-2.3-3.5c-1.5-2.3-3-3.5-4.5-3.5-3 0-4.7-1.8-4.7-5 0-4.5 3.7-6.3 8-4zm187.2 6.5c.8 1.9.8 2.8-.2 4-3 3.6-8.3-.3-6-4.5 1.5-2.8 4.8-2.5 6.2.5zm-.2 36.5.5 22.5 6.6 6.7 6.5 6.7 32 .2 31.9.1 4.6-5.2c4-4.6 4.9-5.1 8-4.8 5.9.5 5 3.5-3.3 10.6l-7.2 6.2h-68.7l-8.9-9.3-9-9.2.4-8.5c.3-4.7.5-15.4.5-23.8l.1-15.3 2.8.3 2.7.3zm-152.5-13.5c5.6 5.5 2.1 14.5-5.6 14.5-3.6 0-7.9-2.8-7.9-5.2 0-.4-6-.8-13.4-.8-11.3 0-13.5-.2-14-1.6-1.4-3.7-.9-3.9 12.9-4.1 13-.1 13.7-.3 16.6-2.7 3.9-3.3 8.2-3.4 11.4-.1zm56.5 14.2c3.8 2.6 4.9 4.5 5 8.3 0 4.3-2 7.5-6.2 9.6-2.6 1.3-3.7 1.4-7.5.4l-4.4-1.3-9.2 9c-9.2 9-12.9 11.8-14.1 10.6-1.5-1.5-.4-4.5 2.6-7 1.8-1.6 6.8-6.1 11-10.2 6.3-6 7.7-7.8 7.2-9.6-.8-3 2-8.1 5.4-9.9 3.6-2 7.2-2 10.2.1zm-31.1 1.8c2.3 2.2 1.7 8.6-.9 10.7-5 4.1-10 1.5-11.3-5.9-.5-2.7-.2-3.6 2.1-5.3 2.9-2.4 7.5-2.1 10.1.5zm65.9 32.1c2.9 2 2.8 4.5-.3 7.4-1.7 1.6-2.5 3.5-2.6 5.9-.1 2-.5 4.9-1 6.6-.6 2.2-.7 1.1-.5-4 .2-6.1 0-7.4-2.1-9.8-2.7-3.4-2.8-4-.7-6.1 2-2 4.3-2 7.2 0zm-53.8 4.9c3.1 3.8-2.7 9.6-6.5 6.5-1.8-1.5-2-6.6-.2-7.3 2.4-1 5.5-.7 6.7.8zm115.2 10 3.1 3.4 22.7-.6 22.7-.6 6.7 6.8c6.6 6.9 8.2 10.7 5.1 11.9-1 .4-3.5-1.5-7.4-5.4l-5.8-6h-46.7l-4.3-4.2c-4.5-4.5-5-5.7-3.1-7.6 2-2 3.8-1.4 7 2.3zm41.2 20.6c5.7 4.4 2.2 14.9-5.1 15.1-3.2.1-7.8-2.4-8.7-4.8-.4-1.1-3.6-1.4-16.8-1.4-9 0-16.8-.4-17.5-.8s-1-1.7-.6-3c.5-2.2.8-2.2 17.5-2.2s17.1 0 20-2.5c3.6-3 7.6-3.2 11.2-.4zm-67.4 131.9c11.8 1.5 20.6 2.8 19.5 2.9-1.1 0-12.5 1-25.4 2.2-25.1 2.3-20.5 2.4-61.6-1.6-7.1-.7-11.6-1.3-10-1.4 4.2-.2 19-1.9 31.5-3.5 15.2-2 22-1.8 46 1.4z"/><path d="m342.7 140.8c-4.4 4.8 1.6 13 6.9 9.4 2.3-1.5 3.5-5.1 2.4-7.2-2.2-4-6.7-5.1-9.3-2.2zm-56.3 5.8c-2.2 3.3-1 7.2 2.9 9.4 2.4 1.3 3 1.3 5.5 0 3.4-1.9 4.2-7.2 1.6-10.1s-7.9-2.5-10 .7zm-103.4 14.8c-1.2 1.4-2.2 3.7-2.2 5.1 0 6.7 9 10.1 13.1 4.9 2.8-3.6 2.6-6.6-.5-9.8-3.4-3.3-7.3-3.4-10.4-.2zm199.8 48.1c-2.3 5.1 4.7 8.7 7.8 4 1.2-1.8 1.1-2.4-.2-4.3-2.1-3.1-6.1-2.9-7.6.3zm7.1 96.2c-1.3 1.6-1.2 1.7.4.4s2.1-2.1 1.3-2.1c-.2 0-1 .8-1.7 1.7zm-171.8-129.1c-2.4 3.1-2.5 3.7-1 6.7 1.6 2.9 2.8 3.7 6.1 3.7 2.9 0 6.8-4 6.8-7.1 0-5.6-8.3-7.8-11.9-3.3zm65.5-63c-2.1 2.1-2 4.7.2 6.7 2.5 2.3 4.8 2.1 6.6-.5 2-2.9 2-3.4-.4-5.8s-4.3-2.5-6.4-.4zm-90.9 4.1c-1.4 1.3-.7 4.3 1.2 5.3 1.5.7 2.3.6 3.5-.6 1.9-1.9 2-2.6.4-4.2-1.3-1.3-4.1-1.6-5.1-.5zm121.1 4.4c-3.7 2.1-1 9.9 3.4 9.9 2.1 0 4.8-3.2 4.8-5.8 0-2-3.4-5.2-5.5-5.2-.5 0-1.8.5-2.7 1.1zm51 46c-2.3 1.3-2.3 5.1 0 7.2s4.6 2.2 6.6.1c4.4-4.4-1.2-10.5-6.6-7.3zm-159.2 107c-6.1 4.8-1.1 13.4 6.4 10.8 5.7-2 5.9-9.2.3-11.8-3.2-1.5-3.6-1.4-6.7 1zm-61.4-48.5c-2.8 2-2.8 3.5.3 6.4 2.4 2.3 2.5 2.3 4.5.5 2.4-2.2 2.6-4.8.4-6.9-1.9-2-2.4-2-5.2 0zm55.2 16.5c-1.7 1.8-1.7 2.3-.4 4.6 2.3 4 4.4 4.9 7.4 3.3 3.4-1.7 4.1-4.5 2.2-7.5-2.1-3.1-6.5-3.3-9.2-.4zm-29.2-.9c-2.9 2.9.4 7.6 4.2 6.2 3-1.1 1.3-7.4-1.9-7.4-.6 0-1.6.5-2.3 1.2zm168 69c-2.6 2.6-.6 6.8 3.3 6.8 3.1 0 5-4.4 2.9-6.5-1.8-1.8-4.6-1.9-6.2-.3z"/></svg>